<?xml version="1.0" standalone="no"?>
<svg viewBox="0 0 200 200" xmlns="http://www.w3.org/2000/svg">
  <path fill="#24A148" d="M38.8,-65.9C45,-56.3,41.1,-36.7,46.1,-22.1C51.2,-7.6,65,1.9,67.6,12.4C70.3,22.9,61.6,34.4,50.8,40.6C40.1,46.9,27.2,47.9,15.7,49.4C4.2,50.9,-6,53,-17.6,52.8C-29.1,52.7,-42.1,50.2,-48.3,42.3C-54.5,34.4,-53.8,21,-57.7,7.1C-61.5,-6.8,-69.8,-21.2,-69.5,-35.8C-69.2,-50.4,-60.3,-65.3,-47.3,-71.7C-34.3,-78.1,-17.2,-76.1,-0.4,-75.5C16.3,-74.8,32.6,-75.4,38.8,-65.9Z" transform="translate(100 100)" />
</svg>
