<?xml version="1.0" standalone="no"?>
<svg style="position:absolute,width:" viewBox="0 0 200 200" xmlns="http://www.w3.org/2000/svg">
  <path fill="#24A148" d="M21.7,-35C28.8,-29.3,35.6,-24.3,38.8,-17.6C42,-10.9,41.5,-2.5,43.5,8.5C45.5,19.6,49.9,33.3,46.6,44.4C43.2,55.4,32.2,63.8,19.5,68.3C6.9,72.8,-7.4,73.4,-16.9,66.6C-26.4,59.7,-31,45.3,-42.8,35.2C-54.5,25,-73.4,19.1,-77.8,9.2C-82.3,-0.7,-72.4,-14.6,-62.8,-25.9C-53.3,-37.2,-44.1,-45.8,-33.7,-50C-23.3,-54.2,-11.7,-54,-2.2,-50.6C7.3,-47.3,14.7,-40.7,21.7,-35Z" transform="translate(100 100)" />
</svg>
