<svg xmlns="http://www.w3.org/2000/svg" height="48" width="48"><path fill="#f4f4f3" d="M39.75 22.1q-.25-6-4.475-10.225T25.05 7.4V4q3.65.1 6.95 1.6 3.3 1.5 5.675 3.875t3.875 5.675q1.5 3.3 1.6 6.95Zm-9.05 0q-.35-2.2-1.9-3.8-1.55-1.6-3.75-1.8v-3.4q3.6.2 6.175 2.775Q33.8 18.45 34.15 22.1Zm8.9 20.85q-6.25 0-12.45-3.075-6.2-3.075-11.125-7.975-4.925-4.9-8-11.15T4.95 8.35q0-1.4 1-2.425T8.4 4.9h6.75q1.6 0 2.575.8.975.8 1.275 2.35l1.35 5.3q.2 1.4-.1 2.375-.3.975-1.1 1.675L14 22.1q2.5 3.95 5.45 6.825T26 33.85l4.95-4.95q.85-.9 1.9-1.25 1.05-.35 2.35-.05l4.7 1.15q1.55.4 2.35 1.425t.8 2.525v6.75q0 1.5-1 2.5t-2.45 1Z"/></svg>